Walden - Diaries Notes and Sketches (1969)


Poet and hero of the American counter-culture, Jonas Mekas, born in Lithuania in 1922, invented the diary form of filmmaking. Walden, his first completed diary film, an epic portrait of the New York avant-garde art scene of the 60s, is also a groundbreaking work of personal cinema.

"Since 1950 I have been keeping a film diary. I have been walking around with my Bolex and reacting to the immediate reality: situations, friends, New York, seasons of the year. On some days I shoot ten frames, on others ten seconds, still on others ten minutes. Or I shoot nothing.... Walden contains material from the years 1964-1968 strung together in chronological order." — Jonas Mekas
 
http://www.imdb.com/title/tt0196499
_________________________________


Language: English
Subtitles: Deutsch, Spanish, French, Italian, Japanese, Lithuanian (VobSubs)

_________________________________

Rip Specs

Source: DVD

CD 1

General
Format : Matroska
File size : 1.22 GiB
Duration : 1h 22mn
Overall bit rate : 2 114 Kbps

Video
ID : 1
Format : AVC
Codec ID : V_MPEG4/ISO/AVC
Duration : 1h 22mn
Bit rate mode : Variable
Bit rate : 1 921 Kbps
Maximum bit rate : 25.0 Mbps
Width : 720 pixels
Height : 480 pixels
Display aspect ratio : 4:3
Original display aspect ratio : 4:3
Frame rate : 23.976 fps
Standard : NTSC
Color space : YUV
Chroma subsampling : 4:2:0
Bit depth : 8 bits
Scan type : Progressive
Bits/(Pixel*Frame) : 0.232
Stream size : 1.08 GiB (89%)

Audio
ID : 2
Format : AC-3
Format/Info : Audio Coding 3
Mode extension : CM (complete main)
Codec ID : A_AC3
Duration : 1h 22mn
Bit rate mode : Constant
Bit rate : 192 Kbps
Channel(s) : 2 channels
Channel positions : Front: L R
Sampling rate : 48.0 KHz
Bit depth : 16 bits
Compression mode : Lossy
Stream size : 113 MiB (9%)


CD2

General
Format : Matroska
File size : 1.22 GiB
Duration : 1h 32mn
Overall bit rate : 1 881 Kbps

Video
ID : 1
Format : AVC
Codec ID : V_MPEG4/ISO/AVC
Duration : 1h 32mn
Bit rate mode : Variable
Bit rate : 1 688 Kbps
Maximum bit rate : 25.0 Mbps
Width : 720 pixels
Height : 480 pixels
Display aspect ratio : 4:3
Original display aspect ratio : 4:3
Frame rate : 23.976 fps
Standard : NTSC
Color space : YUV
Chroma subsampling : 4:2:0
Bit depth : 8 bits
Scan type : Progressive
Bits/(Pixel*Frame) : 0.204
Stream size : 1.07 GiB (88%)

Audio
ID : 2
Format : AC-3
Format/Info : Audio Coding 3
Mode extension : CM (complete main)
Codec ID : A_AC3
Duration : 1h 32mn
Bit rate mode : Constant
Bit rate : 192 Kbps
Channel(s) : 2 channels
Channel positions : Front: L R
Sampling rate : 48.0 KHz
Bit depth : 16 bits
Compression mode : Lossy
Stream size : 127 MiB (10%)